<svg xmlns="http://www.w3.org/2000/svg" xmlns:xlink="http://www.w3.org/1999/xlink" width="1920" zoomAndPan="magnify" viewBox="0 0 1440 809.999993" height="1080" preserveAspectRatio="xMidYMid meet" version="1.0"><defs><clipPath id="f1c1ae899d"><path d="M 271.496094 154 L 430 154 L 430 355.699219 L 271.496094 355.699219 Z M 271.496094 154 " clip-rule="nonzero"/></clipPath><clipPath id="6b9e943a39"><path d="M 296 103 L 454.496094 103 L 454.496094 305 L 296 305 Z M 296 103 " clip-rule="nonzero"/></clipPath><clipPath id="60638b2a0f"><path d="M 483.398438 192.035156 L 576.398438 192.035156 L 576.398438 316.535156 L 483.398438 316.535156 Z M 483.398438 192.035156 " clip-rule="nonzero"/></clipPath><clipPath id="d88a481407"><path d="M 622.601562 192.035156 L 724.601562 192.035156 L 724.601562 316.535156 L 622.601562 316.535156 Z M 622.601562 192.035156 " clip-rule="nonzero"/></clipPath><clipPath id="7158410bb5"><path d="M 761.617188 193.0625 L 860.617188 193.0625 L 860.617188 316.8125 L 761.617188 316.8125 Z M 761.617188 193.0625 " clip-rule="nonzero"/></clipPath><clipPath id="fc7fe05ae4"><path d="M 905.554688 192.035156 L 1013.363281 192.035156 L 1013.363281 316.554688 L 905.554688 316.554688 Z M 905.554688 192.035156 " clip-rule="nonzero"/></clipPath><clipPath id="2d0fb533a5"><path d="M 941.050781 293.316406 L 976.597656 293.316406 L 983.5 316.132812 L 1013.363281 316.132812 L 974.671875 192.035156 L 944.339844 192.035156 L 905.554688 316.085938 L 934.335938 316.085938 Z M 958.894531 233.121094 L 968.472656 265.988281 L 949.175781 265.988281 Z M 958.894531 233.121094 " clip-rule="nonzero"/></clipPath><clipPath id="5390233779"><path d="M 1059.863281 193.0625 L 1143.863281 193.0625 L 1143.863281 316.8125 L 1059.863281 316.8125 Z M 1059.863281 193.0625 " clip-rule="nonzero"/></clipPath><clipPath id="684a648575"><path d="M 703.734375 393.898438 L 819.234375 393.898438 L 819.234375 526.648438 L 703.734375 526.648438 Z M 703.734375 393.898438 " clip-rule="nonzero"/></clipPath><clipPath id="8469951c4c"><path d="M 854.226562 393.898438 L 959.226562 393.898438 L 959.226562 522.148438 L 854.226562 522.148438 Z M 854.226562 393.898438 " clip-rule="nonzero"/></clipPath><clipPath id="dd8dc36cf3"><path d="M 442.925781 393.898438 L 541.925781 393.898438 L 541.925781 517.648438 L 442.925781 517.648438 Z M 442.925781 393.898438 " clip-rule="nonzero"/></clipPath><clipPath id="c2c0c18483"><path d="M 576.203125 393.898438 L 669.203125 393.898438 L 669.203125 518.398438 L 576.203125 518.398438 Z M 576.203125 393.898438 " clip-rule="nonzero"/></clipPath></defs><g clip-path="url(#f1c1ae899d)"><path fill="#010101" d="M 403.582031 305.664062 C 403.582031 280.675781 403.582031 256.070312 403.582031 231.457031 C 403.265625 231.339844 402.949219 231.21875 402.632812 231.09375 C 389.554688 247.519531 376.46875 263.945312 362.914062 280.96875 C 358.089844 274.957031 353.46875 269.203125 348.433594 262.933594 C 323.761719 293.949219 299.285156 324.710938 274.609375 355.730469 C 273.480469 354.828125 272.582031 354.109375 271.507812 353.25 C 324.039062 287.183594 376.375 221.359375 429.375 154.695312 C 429.375 205.652344 429.375 255.535156 429.375 305.664062 C 420.90625 305.664062 412.65625 305.664062 403.582031 305.664062 Z M 403.582031 305.664062 " fill-opacity="1" fill-rule="nonzero"/></g><g clip-path="url(#6b9e943a39)"><path fill="#010101" d="M 296.460938 155.386719 C 315.632812 179.484375 334.203125 202.832031 353.1875 226.699219 C 354.628906 224.964844 355.898438 223.488281 357.105469 221.972656 C 387.554688 183.660156 417.988281 145.324219 448.488281 107.042969 C 449.832031 105.359375 451.105469 101.46875 454.464844 105.902344 C 416.191406 154.035156 377.894531 202.207031 339.152344 250.9375 C 333.753906 244.246094 328.613281 237.871094 322.871094 230.757812 C 322.652344 232.628906 322.417969 233.699219 322.417969 234.777344 C 322.394531 245.882812 322.53125 256.992188 322.304688 268.09375 C 322.253906 270.378906 321.394531 273.035156 320.015625 274.832031 C 312.523438 284.621094 304.75 294.195312 296.457031 304.617188 C 296.460938 254.605469 296.460938 205.535156 296.460938 155.386719 Z M 296.460938 155.386719 " fill-opacity="1" fill-rule="nonzero"/></g><g clip-path="url(#60638b2a0f)"><path fill="#000000" d="M 576.394531 214.824219 L 576.394531 192.046875 L 483.402344 192.046875 L 483.402344 316.527344 L 576.394531 316.527344 L 576.394531 293.746094 L 506.242188 293.746094 L 506.242188 265.671875 L 576.394531 265.671875 L 576.394531 242.894531 L 506.242188 242.894531 L 506.242188 214.824219 Z M 576.394531 214.824219 " fill-opacity="1" fill-rule="nonzero"/></g><g clip-path="url(#d88a481407)"><path fill="#000000" d="M 721.734375 192.035156 L 701.914062 192.035156 C 700.351562 192.035156 699.085938 193.300781 699.085938 194.863281 L 699.085938 271.261719 L 698.605469 271.261719 L 645.941406 193.226562 C 645.414062 192.480469 644.40625 192.035156 643.484375 192.035156 L 625.472656 192.035156 C 623.90625 192.035156 622.640625 193.300781 622.640625 194.863281 L 622.640625 313.703125 C 622.640625 315.265625 623.90625 316.535156 625.472656 316.535156 L 645.292969 316.535156 C 646.855469 316.535156 648.121094 315.265625 648.121094 313.703125 L 648.121094 237.308594 L 648.601562 237.308594 L 701.265625 315.339844 C 701.792969 316.089844 702.882812 316.535156 703.800781 316.535156 L 721.734375 316.535156 C 723.300781 316.535156 724.566406 315.265625 724.566406 313.703125 L 724.566406 194.863281 C 724.566406 193.300781 723.300781 192.035156 721.734375 192.035156 Z M 721.734375 192.035156 " fill-opacity="1" fill-rule="nonzero"/></g><g clip-path="url(#7158410bb5)"><path fill="#000000" d="M 821.003906 316.8125 L 801.226562 316.8125 C 799.664062 316.8125 798.402344 315.554688 798.402344 314 L 798.402344 212.75 L 764.496094 212.75 C 762.933594 212.75 761.667969 211.492188 761.667969 209.9375 L 761.667969 195.875 C 761.667969 194.324219 762.933594 193.0625 764.496094 193.0625 L 857.738281 193.0625 C 859.300781 193.0625 860.5625 194.324219 860.5625 195.875 L 860.5625 209.9375 C 860.5625 211.492188 859.300781 212.75 857.738281 212.75 L 823.832031 212.75 L 823.832031 314 C 823.832031 315.554688 822.566406 316.8125 821.003906 316.8125 Z M 821.003906 316.8125 " fill-opacity="1" fill-rule="nonzero"/></g><g clip-path="url(#fc7fe05ae4)"><g clip-path="url(#2d0fb533a5)"><path fill="#000000" d="M 905.554688 192.035156 L 1013.363281 192.035156 L 1013.363281 316.085938 L 905.554688 316.085938 Z M 905.554688 192.035156 " fill-opacity="1" fill-rule="nonzero"/></g></g><g clip-path="url(#5390233779)"><path fill="#000000" d="M 1082.28125 193.0625 L 1062.699219 193.0625 C 1061.15625 193.0625 1059.902344 194.324219 1059.902344 195.875 L 1059.902344 314 C 1059.902344 315.554688 1061.15625 316.8125 1062.699219 316.8125 L 1141.023438 316.8125 C 1142.566406 316.8125 1143.820312 315.554688 1143.820312 314 L 1143.820312 297.125 C 1143.820312 295.574219 1142.566406 294.3125 1141.023438 294.3125 L 1085.078125 294.3125 L 1085.078125 195.875 C 1085.078125 194.324219 1083.824219 193.0625 1082.28125 193.0625 Z M 1082.28125 193.0625 " fill-opacity="1" fill-rule="nonzero"/></g><g clip-path="url(#684a648575)"><path fill="#000000" d="M 796.328125 483.363281 C 795.054688 483.363281 793.980469 484.210938 793.566406 485.414062 C 789.53125 497.105469 778.25 503.5625 763.71875 503.5625 C 742.546875 503.5625 729.738281 487.558594 729.738281 460.230469 C 729.738281 432.992188 742.546875 416.988281 763.632812 416.988281 C 778.5 416.988281 790.027344 424.71875 793.820312 437.890625 C 794.1875 439.164062 795.292969 440.074219 796.613281 440.074219 C 796.613281 440.074219 812.585938 440.082031 817.761719 440.074219 C 818.628906 440.070312 819.308594 439.304688 819.195312 438.445312 C 815.8125 412.574219 792.585938 393.898438 763.632812 393.898438 C 726.703125 393.898438 703.761719 419.351562 703.761719 460.320312 C 703.761719 501.230469 726.738281 526.648438 763.71875 526.648438 C 792.777344 526.648438 815.019531 509.957031 819.191406 485.054688 C 819.335938 484.175781 818.648438 483.363281 817.757812 483.363281 Z M 796.328125 483.363281 " fill-opacity="1" fill-rule="nonzero"/></g><g clip-path="url(#8469951c4c)"><path fill="#000000" d="M 956.277344 522.148438 L 935.875 522.148438 C 934.261719 522.148438 932.960938 520.84375 932.960938 519.234375 L 932.960938 466.769531 L 880.496094 466.769531 L 880.496094 519.234375 C 880.496094 520.84375 879.191406 522.148438 877.582031 522.148438 L 857.175781 522.148438 C 855.566406 522.148438 854.261719 520.84375 854.261719 519.234375 L 854.261719 396.816406 C 854.261719 395.207031 855.566406 393.898438 857.175781 393.898438 L 877.582031 393.898438 C 879.191406 393.898438 880.496094 395.207031 880.496094 396.816406 L 880.496094 443.453125 L 932.960938 443.453125 L 932.960938 396.816406 C 932.960938 395.207031 934.261719 393.898438 935.875 393.898438 L 956.277344 393.898438 C 957.890625 393.898438 959.191406 395.207031 959.191406 396.816406 L 959.191406 519.234375 C 959.191406 520.84375 957.890625 522.148438 956.277344 522.148438 Z M 956.277344 522.148438 " fill-opacity="1" fill-rule="nonzero"/></g><g clip-path="url(#dd8dc36cf3)"><path fill="#000000" d="M 502.3125 517.648438 L 482.535156 517.648438 C 480.972656 517.648438 479.710938 516.390625 479.710938 514.835938 L 479.710938 413.585938 L 445.804688 413.585938 C 444.242188 413.585938 442.976562 412.328125 442.976562 410.773438 L 442.976562 396.710938 C 442.976562 395.160156 444.242188 393.898438 445.804688 393.898438 L 539.046875 393.898438 C 540.609375 393.898438 541.871094 395.160156 541.871094 396.710938 L 541.871094 410.773438 C 541.871094 412.328125 540.609375 413.585938 539.046875 413.585938 L 505.140625 413.585938 L 505.140625 514.835938 C 505.140625 516.390625 503.875 517.648438 502.3125 517.648438 Z M 502.3125 517.648438 " fill-opacity="1" fill-rule="nonzero"/></g><g clip-path="url(#c2c0c18483)"><path fill="#000000" d="M 669.199219 416.691406 L 669.199219 393.914062 L 576.203125 393.914062 L 576.203125 518.390625 L 669.199219 518.390625 L 669.199219 495.609375 L 599.046875 495.609375 L 599.046875 467.539062 L 669.199219 467.539062 L 669.199219 444.761719 L 599.046875 444.761719 L 599.046875 416.691406 Z M 669.199219 416.691406 " fill-opacity="1" fill-rule="nonzero"/></g></svg>